<svg width="30" height="38" viewBox="0 0 30 38" fill="none" xmlns="http://www.w3.org/2000/svg">
<path d="M13.5 1.5V10.5C13.5 13.5376 15.9624 16 19 16H28V35C28 35.536 27.981 35.9012 27.939 36.1629C27.9184 36.291 27.8963 36.3669 27.8817 36.4075C27.7922 36.4406 27.5502 36.5 27 36.5H3C2.00348 36.5 1.77084 36.3064 1.73223 36.2678C1.69363 36.2292 1.5 35.9965 1.5 35V3C1.5 2.00349 1.69363 1.77084 1.73223 1.73223C1.77084 1.69363 2.00349 1.5 3 1.5H13.5ZM16.5 10.5V3.62132L25.8787 13H19C17.6193 13 16.5 11.8807 16.5 10.5ZM27.9264 36.386C27.927 36.3863 27.9228 36.3896 27.9121 36.3948C27.9204 36.3883 27.9258 36.3857 27.9264 36.386Z" stroke="black" stroke-width="3"/>
</svg>
